<svg width="53" height="44" viewBox="0 0 53 44" fill="none" xmlns="http://www.w3.org/2000/svg">
<path d="M51.8591 42.0229C51.4463 42.6125 50.8161 43.014 50.1072 43.139C49.3984 43.264 48.6689 43.1023 48.0792 42.6894L33.2726 32.3867C32.6829 31.9738 32.2815 31.3436 32.1565 30.6348C32.0315 29.9259 32.1932 29.1964 32.606 28.6068C33.0189 28.0171 33.6491 27.6156 34.358 27.4906C35.0668 27.3656 35.7963 27.5274 36.3859 27.9402L51.1926 38.243C51.7822 38.6558 52.1837 39.286 52.3087 39.9949C52.4337 40.7038 52.272 41.4332 51.8591 42.0229Z" fill="#0F1C3B"/>
<path d="M35.0492 30.3175C32.8636 33.439 29.8014 35.8422 26.2499 37.2234C22.6984 38.6045 18.8171 38.9015 15.0968 38.0768C11.3766 37.2521 7.98439 35.3427 5.34928 32.5901C2.71417 29.8375 0.954507 26.3653 0.292761 22.6126C-0.368985 18.8599 0.0969013 14.9952 1.63157 11.5073C3.16623 8.01941 5.70072 5.06493 8.91453 3.01746C12.1283 0.969991 15.8771 -0.0785025 19.6868 0.00458183C23.4965 0.0876662 27.196 1.29859 30.3175 3.48423C34.4985 6.41878 37.3447 10.892 38.2318 15.9224C39.1189 20.9529 37.9743 26.1299 35.0492 30.3175ZM7.42985 10.9787C5.79063 13.3198 4.88247 16.0944 4.82017 18.9516C4.75786 21.8089 5.54421 24.6205 7.07981 27.0308C8.61541 29.4412 10.8313 31.342 13.4472 32.493C16.0631 33.644 18.9616 33.9934 21.7761 33.4971C24.5906 33.0008 27.1947 31.6811 29.2592 29.7047C31.3236 27.7284 32.7557 25.1843 33.3742 22.3941C33.9928 19.6039 33.77 16.6929 32.7342 14.0293C31.6983 11.3657 29.8959 9.06909 27.5548 7.42986C24.4141 5.23603 20.5314 4.37758 16.7585 5.04288C12.9857 5.70818 9.63076 7.84289 7.42985 10.9787Z" fill="#0F1C3B"/>
</svg>
