<?xml version="1.0" standalone="no"?>
<!DOCTYPE svg PUBLIC "-//W3C//DTD SVG 20010904//EN"
 "http://www.w3.org/TR/2001/REC-SVG-20010904/DTD/svg10.dtd">
<svg version="1.0" xmlns="http://www.w3.org/2000/svg"
 width="860.000000pt" height="617.000000pt" viewBox="0 0 860.000000 617.000000"
 preserveAspectRatio="xMidYMid meet">

<g transform="translate(0.000000,617.000000) scale(0.100000,-0.100000)"
fill="#000000" stroke="none">
<path d="M6741 5753 c-44 -22 -143 -114 -442 -411 l-246 -244 -114 45 c-1188
468 -2475 409 -3654 -168 -795 -390 -1513 -1024 -1889 -1669 -108 -185 -114
-221 -58 -341 111 -233 410 -616 703 -900 324 -314 622 -529 1123 -811 38 -21
71 -44 73 -50 2 -6 -97 -114 -219 -240 -319 -329 -338 -352 -338 -429 0 -55
82 -135 138 -135 41 0 130 77 424 369 l308 304 97 -41 c260 -107 721 -231
1033 -277 234 -36 859 -43 1142 -14 219 22 579 104 859 195 814 265 1581 768
2146 1407 244 277 457 608 470 731 5 47 1 59 -48 156 -30 58 -89 157 -131 220
-363 542 -897 1018 -1580 1410 -150 86 -176 104 -168 118 5 10 117 129 250
267 132 137 254 269 270 294 51 76 37 153 -37 204 -45 31 -65 33 -112 10z
m-2096 -634 c236 -17 498 -63 760 -134 226 -62 379 -116 383 -136 4 -19 -172
-210 -425 -462 l-189 -187 -89 57 c-179 113 -391 200 -560 229 -129 23 -447
14 -560 -15 -487 -124 -891 -500 -1050 -974 -49 -145 -68 -267 -68 -432 0
-285 75 -530 239 -782 29 -46 61 -97 70 -114 l16 -32 -344 -344 -344 -344 -55
25 c-64 28 -252 130 -359 194 -404 243 -820 599 -1101 942 -105 128 -256 343
-293 416 l-27 53 20 45 c28 65 100 173 209 316 294 386 632 698 1054 973 568
371 1200 606 1838 686 91 11 179 22 195 25 57 7 560 3 680 -5z m1557 -438 c35
-15 121 -60 192 -100 573 -321 1049 -739 1397 -1228 79 -112 159 -242 159
-261 0 -42 -120 -231 -264 -416 -506 -649 -1259 -1163 -2111 -1439 -423 -137
-815 -199 -1265 -199 -374 0 -658 35 -1052 132 -220 53 -458 135 -458 157 0 5
134 145 298 311 l297 303 100 -67 c175 -116 328 -182 510 -220 126 -27 433
-27 555 0 279 60 518 193 731 405 291 291 434 625 432 1011 -1 283 -78 528
-255 803 l-70 108 18 27 c32 49 689 702 706 702 9 0 45 -13 80 -29z m-1722
-516 c52 -8 128 -25 168 -39 88 -30 248 -106 280 -132 l24 -20 -133 -139
c-197 -207 -1147 -1180 -1297 -1329 l-130 -129 -32 44 c-45 62 -126 233 -145
304 -45 172 -56 367 -30 538 64 426 389 783 806 886 46 11 100 22 119 24 88
10 284 6 370 -8z m730 -452 c50 -76 117 -221 144 -316 95 -327 38 -708 -145
-979 -127 -187 -352 -349 -584 -421 -182 -57 -477 -57 -673 -1 -105 30 -278
112 -311 148 l-25 27 80 82 c43 45 178 183 299 307 577 589 1076 1100 1119
1148 27 28 52 52 56 52 5 0 22 -21 40 -47z"/>
</g>
</svg>
