<?xml version="1.0" standalone="no"?>
<!DOCTYPE svg PUBLIC "-//W3C//DTD SVG 20010904//EN"
 "http://www.w3.org/TR/2001/REC-SVG-20010904/DTD/svg10.dtd">
<svg version="1.0" xmlns="http://www.w3.org/2000/svg"
 width="1200.000000pt" height="1200.000000pt" viewBox="0 0 1200.000000 1200.000000"
 preserveAspectRatio="xMidYMid meet">

<g transform="translate(0.000000,1200.000000) scale(0.100000,-0.100000)"
fill="#000000" stroke="none">
<path d="M5655 9739 c-1194 -77 -2349 -526 -3430 -1334 -361 -269 -603 -481
-975 -854 -475 -475 -818 -884 -1139 -1360 -97 -143 -109 -166 -99 -185 20
-39 187 -285 280 -413 481 -663 1122 -1337 1743 -1834 1537 -1227 3204 -1713
4903 -1429 1302 219 2577 916 3720 2035 467 457 918 996 1249 1493 l95 142
-95 143 c-331 496 -782 1035 -1249 1492 -1430 1400 -3041 2126 -4693 2114
-104 -1 -244 -5 -310 -10z m855 -764 c772 -77 1485 -309 2187 -711 772 -441
1524 -1115 2098 -1879 109 -145 265 -372 265 -385 0 -13 -156 -240 -265 -385
-662 -881 -1524 -1610 -2430 -2055 -620 -305 -1232 -477 -1920 -542 -206 -19
-727 -16 -940 5 -1036 106 -1976 483 -2861 1149 -527 396 -1036 907 -1439
1443 -109 145 -265 372 -265 385 0 13 156 240 265 385 713 949 1651 1715 2635
2152 546 242 1157 400 1715 443 77 6 160 12 185 14 101 9 625 -4 770 -19z"/>
<path d="M5775 8239 c-762 -72 -1453 -555 -1796 -1254 -421 -859 -247 -1896
431 -2575 518 -517 1247 -749 1970 -626 714 121 1324 579 1640 1231 107 220
166 408 206 660 25 154 25 496 0 650 -40 252 -99 440 -206 660 -410 845 -1301
1343 -2245 1254z"/>
</g>
</svg>
